#
# Object file
# Created by SpaceClaim
#

mtllib fardo_1.mtl

# Projeto1\Sólido
v 514 1430 -1446
v 514 1430 454
v 514 0 454
v 514 0 -1446
v 514 1430 454
v -336 1430 454
v -336 0 454
v 514 0 454
v -336 1430 454
v -336 1430 -1446
v -336 0 -1446
v -336 0 454
v -336 1430 -1446
v 514 1430 -1446
v 514 0 -1446
v -336 0 -1446
v 514 1430 454
v 514 1430 -1446
v -336 1430 -1446
v -336 1430 454
v -336 0 -1446
v 514 0 -1446
v 514 0 454
v -336 0 454
vn 1 0 0
vn 1 0 0
vn 1 0 0
vn 1 0 0
vn 0 0 1
vn 0 0 1
vn 0 0 1
vn 0 0 1
vn -1 0 0
vn -1 0 0
vn -1 0 0
vn -1 0 0
vn 0 0 -1
vn 0 0 -1
vn 0 0 -1
vn 0 0 -1
vn 0 1 0
vn 0 1 0
vn 0 1 0
vn 0 1 0
vn 0 -1 0
vn 0 -1 0
vn 0 -1 0
vn 0 -1 0
vt 0.95 1.43
vt -0.95 1.43
vt -0.95 0
vt 0.95 0
vt 0.425 1.43
vt -0.425 1.43
vt -0.425 0
vt 0.425 0
vt 0.95 1.43
vt -0.95 1.43
vt -0.95 0
vt 0.95 0
vt 0.425 1.43
vt -0.425 1.43
vt -0.425 0
vt 0.425 0
vt 0.454 0.514
vt -1.446 0.514
vt -1.446 -0.336
vt 0.454 -0.336
vt -1.446 -0.336
vt -1.446 0.514
vt 0.454 0.514
vt 0.454 -0.336

o Projeto1\Sólido
g Projeto1\Sólido
s off

usemtl c_0

# face 0
f 1/1/1 2/2/2 4/4/4
f 4/4/4 2/2/2 3/3/3

# face 1
f 5/5/5 6/6/6 8/8/8
f 8/8/8 6/6/6 7/7/7

# face 2
f 9/9/9 10/10/10 12/12/12
f 12/12/12 10/10/10 11/11/11

# face 3
f 13/13/13 14/14/14 16/16/16
f 16/16/16 14/14/14 15/15/15

# face 4
f 17/17/17 18/18/18 20/20/20
f 20/20/20 18/18/18 19/19/19

# face 5
f 22/22/22 23/23/23 21/21/21
f 21/21/21 23/23/23 24/24/24
